<svg width="204" height="134" viewBox="0 0 204 134" fill="none" xmlns="http://www.w3.org/2000/svg">
<path d="M0 103.485C0 103.163 0.10248 102.9 0.307439 102.695C0.512399 102.49 0.775918 102.387 1.098 102.387H6.71974C7.04182 102.387 7.30534 102.49 7.5103 102.695C7.71526 102.9 7.81774 103.163 7.81774 103.485V119.648C7.81774 121.668 8.43262 123.322 9.66238 124.611C10.8921 125.899 12.4732 126.543 14.4057 126.543C16.3382 126.543 17.9193 125.899 19.1491 124.611C20.3788 123.322 20.9937 121.668 20.9937 119.648V103.485C20.9937 103.163 21.0962 102.9 21.3011 102.695C21.5061 102.49 21.7696 102.387 22.0917 102.387H27.7135C28.0355 102.387 28.2991 102.49 28.504 102.695C28.709 102.9 28.8114 103.163 28.8114 103.485V120.658C28.8114 123.205 28.1966 125.489 26.9668 127.509C25.7663 129.501 24.0681 131.052 21.8721 132.165C19.6761 133.278 17.1873 133.834 14.4057 133.834C11.6241 133.834 9.13534 133.278 6.93934 132.165C4.74335 131.052 3.03047 129.501 1.80072 127.509C0.600239 125.489 0 123.205 0 120.658V103.485ZM29.7818 104.276C29.5768 103.983 29.4744 103.69 29.4744 103.397C29.4744 103.075 29.5915 102.827 29.8257 102.651C30.06 102.475 30.3967 102.387 30.8359 102.387H36.4576C36.9554 102.387 37.336 102.446 37.5995 102.563C37.8923 102.68 38.1559 102.9 38.3901 103.222L43.924 111.083L49.414 103.222C49.6482 102.9 49.8971 102.68 50.1606 102.563C50.4534 102.446 50.8487 102.387 51.3465 102.387H56.9682C57.4074 102.387 57.7441 102.475 57.9784 102.651C58.2126 102.827 58.3297 103.075 58.3297 103.397C58.3297 103.69 58.2272 103.983 58.0223 104.276L48.5795 117.759L58.0223 131.243C58.2272 131.535 58.3297 131.828 58.3297 132.121C58.3297 132.443 58.2126 132.692 57.9784 132.868C57.7441 133.043 57.4074 133.131 56.9682 133.131H51.3465C50.8487 133.131 50.4534 133.073 50.1606 132.956C49.8971 132.838 49.6482 132.619 49.414 132.297L43.924 124.435L38.3901 132.297C38.1559 132.619 37.8923 132.838 37.5995 132.956C37.336 133.073 36.9554 133.131 36.4576 133.131H30.8359C30.3967 133.131 30.06 133.043 29.8257 132.868C29.5915 132.692 29.4744 132.443 29.4744 132.121C29.4744 131.828 29.5768 131.535 29.7818 131.243L39.2246 117.759L29.7818 104.276ZM66.0034 115.803L70.6784 112.479C71.5791 111.865 72.2725 111.25 72.7586 110.635C73.259 110.006 73.5092 109.148 73.5092 108.062C73.5092 107.218 73.1804 106.453 72.5227 105.767C71.8651 105.067 70.9358 104.716 69.7348 104.716C68.9056 104.716 68.2051 104.909 67.6332 105.295C67.0613 105.681 66.6324 106.196 66.3465 106.839C66.0605 107.468 65.9176 108.162 65.9176 108.92C65.9176 109.563 66.0748 110.228 66.3894 110.914C66.7039 111.6 67.14 112.315 67.6975 113.058C68.2551 113.802 68.8913 114.588 69.6062 115.417L84.3819 133.131H79.6211L67.5045 118.634C66.4323 117.376 65.4744 116.225 64.6309 115.182C63.7873 114.124 63.1225 113.101 62.6365 112.115C62.1647 111.128 61.9288 110.106 61.9288 109.048C61.9288 107.418 62.2504 106.046 62.8938 104.931C63.5514 103.801 64.4664 102.943 65.6388 102.357C66.8111 101.771 68.1836 101.478 69.7563 101.478C71.286 101.478 72.6013 101.785 73.7022 102.4C74.8174 103.001 75.6752 103.801 76.2756 104.802C76.8761 105.789 77.1763 106.875 77.1763 108.062C77.1763 109.063 76.9976 109.963 76.6402 110.764C76.2828 111.55 75.7824 112.272 75.139 112.93C74.51 113.587 73.7737 114.231 72.9302 114.86L66.7325 119.471C65.7031 120.228 64.9525 120.95 64.4807 121.637C64.0089 122.323 63.7016 122.93 63.5586 123.459C63.4299 123.988 63.3656 124.41 63.3656 124.725C63.3656 125.74 63.5872 126.669 64.0304 127.513C64.4736 128.356 65.1455 129.035 66.0462 129.55C66.9612 130.05 68.105 130.3 69.4775 130.3C70.6784 130.3 71.8436 130.029 72.9731 129.486C74.1168 128.928 75.139 128.142 76.0397 127.127C76.9404 126.097 77.6553 124.875 78.1843 123.459C78.7275 122.03 78.9992 120.45 78.9992 118.72H82.5591C82.5591 120.135 82.4233 121.472 82.1516 122.73C81.88 123.988 81.4582 125.161 80.8864 126.247C80.3288 127.32 79.6139 128.299 78.7418 129.185C78.6132 129.314 78.5131 129.464 78.4416 129.636C78.3701 129.807 78.27 129.957 78.1414 130.086C77.0691 131.244 75.7467 132.116 74.174 132.702C72.6156 133.274 71.0501 133.56 69.4775 133.56C67.4044 133.56 65.6102 133.181 64.0947 132.424C62.5936 131.666 61.4355 130.622 60.6206 129.293C59.8057 127.963 59.3982 126.44 59.3982 124.725C59.3982 123.409 59.677 122.251 60.2346 121.251C60.8065 120.25 61.5856 119.313 62.5721 118.441C63.5729 117.569 64.7166 116.69 66.0034 115.803ZM109.698 109.327L111.806 106.779C108.864 104.012 104.779 102.299 100.563 102.299C91.6471 102.299 84.5321 109.107 84.5321 117.715C84.5321 126.411 91.5592 133.263 100.431 133.263C104.691 133.263 108.82 131.462 111.85 128.607L109.698 126.28C107.283 128.564 103.989 129.969 100.607 129.969C93.6674 129.969 88.0896 124.479 88.0896 117.715C88.0896 110.908 93.6674 105.506 100.607 105.506C103.989 105.506 107.326 106.955 109.698 109.327ZM128.917 102.299C119.914 102.299 112.799 109.107 112.799 117.759C112.799 126.411 119.914 133.263 128.917 133.263C137.877 133.263 144.992 126.411 144.992 117.759C144.992 109.107 137.877 102.299 128.917 102.299ZM128.917 105.55C135.769 105.55 141.39 110.952 141.39 117.759C141.39 124.567 135.769 130.057 128.917 130.057C122.066 130.057 116.356 124.567 116.356 117.759C116.356 110.952 122.066 105.55 128.917 105.55ZM162.098 102.387H149.668V133.131H161.966C171.013 133.131 177.909 126.499 177.909 117.759C177.909 109.019 171.057 102.387 162.098 102.387ZM162.142 129.881H153.182V105.637H162.01C168.905 105.637 174.351 110.864 174.351 117.803C174.351 124.699 168.993 129.881 162.142 129.881ZM182.567 102.387V133.131H204V129.881H186.081V119.165H201.584V115.959H186.081V105.637H203.429V102.387H182.567Z" fill="url(#paint0_linear_31_156)"/>
<path fill-rule="evenodd" clip-rule="evenodd" d="M68.2256 0C63.2113 0 59.1465 4.06487 59.1465 9.07912V75.9554C59.1465 80.9697 63.2113 85.0345 68.2256 85.0345H135.102C140.116 85.0345 144.181 80.9697 144.181 75.9554V9.07911C144.181 4.06486 140.116 0 135.102 0H68.2256ZM80.3547 20.6219L79.8305 47.3544L105.514 47.095L105.514 43.6281V39.812H113.147V43.6281V49.9283C113.147 52.544 111.04 54.6717 108.425 54.6982L76.9594 55.016C74.2696 55.0432 72.0893 52.8421 72.1421 50.1526L72.779 17.6663C72.83 15.0688 74.9502 12.9897 77.5482 12.9897H109.388C112.023 12.9897 114.158 15.1254 114.158 17.7598L114.158 24.2263V28.0424L106.526 28.0424L106.526 24.2263V20.6219H80.3547ZM123.133 37.8239L123.657 64.5564L97.8122 64.2954L97.632 60.1511L97.4662 56.3387L89.8413 56.6702L90.007 60.4827L90.305 67.3371C90.4152 69.8699 92.4874 71.8741 95.0225 71.8997L126.528 72.218C129.218 72.2451 131.398 70.0441 131.345 67.3546L130.708 34.8683C130.657 32.2708 128.537 30.1917 125.939 30.1917L94.0989 30.1917C91.4645 30.1917 89.3288 32.3274 89.3288 34.9618V41.4283V45.2444H96.961V41.4283V37.8239H123.133Z" fill="url(#paint1_linear_31_156)"/>
<defs>
<linearGradient id="paint0_linear_31_156" x1="49.7625" y1="133.689" x2="49.7279" y2="87.6817" gradientUnits="userSpaceOnUse">
<stop stop-color="#AD09FE"/>
<stop offset="0.0870302" stop-color="#CF16DB"/>
<stop offset="0.363494" stop-color="#DF35A9"/>
<stop offset="0.787802" stop-color="#FAAE99"/>
</linearGradient>
<linearGradient id="paint1_linear_31_156" x1="98.3932" y1="69.4994" x2="132.521" y2="-14.0681" gradientUnits="userSpaceOnUse">
<stop stop-color="#AD09FE"/>
<stop offset="0.0870302" stop-color="#CF16DB"/>
<stop offset="0.363494" stop-color="#DF35A9"/>
<stop offset="0.948138" stop-color="#FAAE99"/>
</linearGradient>
</defs>
</svg>
